<svg width="36" height="36" viewBox="0 0 36 36" fill="none" xmlns="http://www.w3.org/2000/svg">
<rect width="36" height="36" fill="#F5F5F5"/>
<path d="M-471 -902C-471 -903.104 -470.105 -904 -469 -904H9604C9605.1 -904 9606 -903.105 9606 -902V9601C9606 9602.1 9605.1 9603 9604 9603H-469C-470.104 9603 -471 9602.1 -471 9601V-902Z" fill="#B8B8B8"/>
<path d="M-469 -903H9604V-905H-469V-903ZM9605 -902V9601H9607V-902H9605ZM9604 9602H-469V9604H9604V9602ZM-470 9601V-902H-472V9601H-470ZM-469 9602C-469.552 9602 -470 9601.55 -470 9601H-472C-472 9602.66 -470.657 9604 -469 9604V9602ZM9605 9601C9605 9601.55 9604.55 9602 9604 9602V9604C9605.66 9604 9607 9602.66 9607 9601H9605ZM9604 -903C9604.55 -903 9605 -902.552 9605 -902H9607C9607 -903.657 9605.66 -905 9604 -905V-903ZM-469 -905C-470.657 -905 -472 -903.656 -472 -902H-470C-470 -902.552 -469.552 -903 -469 -903V-905Z" fill="black" fill-opacity="0.1"/>
<g clip-path="url(#clip0_0_1)">
<rect width="1440" height="1080" transform="translate(-36 -198)" fill="#F6F6F6"/>
<g filter="url(#filter0_d_0_1)">
<rect x="-36" y="-78" width="310" height="856" fill="white"/>
<mask id="path-4-inside-1_0_1" fill="white">
<path d="M-36 -13H274V52H-36V-13Z"/>
</mask>
<path d="M-36 -13H274V52H-36V-13Z" fill="white"/>
<path d="M-36 -13H274V52H-36V-13Z" fill="url(#paint0_linear_0_1)"/>
<path d="M269 -13V52H279V-13H269Z" fill="#004343" mask="url(#path-4-inside-1_0_1)"/>
<mask id="mask0_0_1" style="mask-type:alpha" maskUnits="userSpaceOnUse" x="0" y="0" width="36" height="36">
<rect width="35.6374" height="35.6374" fill="#D9D9D9"/>
</mask>
<g mask="url(#mask0_0_1)">
<path d="M11.8776 20.7884C11.4569 20.7884 11.1042 20.6461 10.8196 20.3615C10.535 20.0769 10.3927 19.7243 10.3927 19.3036C10.3927 18.8828 10.535 18.5302 10.8196 18.2456C11.1042 17.961 11.4569 17.8187 11.8776 17.8187C12.2983 17.8187 12.651 17.961 12.9356 18.2456C13.2202 18.5302 13.3625 18.8828 13.3625 19.3036C13.3625 19.7243 13.2202 20.0769 12.9356 20.3615C12.651 20.6461 12.2983 20.7884 11.8776 20.7884ZM17.8172 20.7884C17.3964 20.7884 17.0438 20.6461 16.7592 20.3615C16.4746 20.0769 16.3323 19.7243 16.3323 19.3036C16.3323 18.8828 16.4746 18.5302 16.7592 18.2456C17.0438 17.961 17.3964 17.8187 17.8172 17.8187C18.2379 17.8187 18.5905 17.961 18.8751 18.2456C19.1598 18.5302 19.3021 18.8828 19.3021 19.3036C19.3021 19.7243 19.1598 20.0769 18.8751 20.3615C18.5905 20.6461 18.2379 20.7884 17.8172 20.7884ZM23.7567 20.7884C23.336 20.7884 22.9834 20.6461 22.6987 20.3615C22.4141 20.0769 22.2718 19.7243 22.2718 19.3036C22.2718 18.8828 22.4141 18.5302 22.6987 18.2456C22.9834 17.961 23.336 17.8187 23.7567 17.8187C24.1775 17.8187 24.5301 17.961 24.8147 18.2456C25.0993 18.5302 25.2416 18.8828 25.2416 19.3036C25.2416 19.7243 25.0993 20.0769 24.8147 20.3615C24.5301 20.6461 24.1775 20.7884 23.7567 20.7884ZM7.42291 32.6676C6.60622 32.6676 5.90708 32.3768 5.3255 31.7952C4.74392 31.2136 4.45312 30.5145 4.45312 29.6978V8.9093C4.45312 8.09261 4.74392 7.39347 5.3255 6.81189C5.90708 6.2303 6.60622 5.93951 7.42291 5.93951H8.9078V2.96973H11.8776V5.93951H23.7567V2.96973H26.7265V5.93951H28.2114C29.0281 5.93951 29.7272 6.2303 30.3088 6.81189C30.8904 7.39347 31.1812 8.09261 31.1812 8.9093V29.6978C31.1812 30.5145 30.8904 31.2136 30.3088 31.7952C29.7272 32.3768 29.0281 32.6676 28.2114 32.6676H7.42291ZM7.42291 29.6978H28.2114V14.8489H7.42291V29.6978ZM7.42291 11.8791H28.2114V8.9093H7.42291V11.8791Z" fill="#004343"/>
</g>
</g>
</g>
<defs>
<filter id="filter0_d_0_1" x="-45" y="-93" width="340" height="886" filterUnits="userSpaceOnUse" color-interpolation-filters="sRGB">
<feFlood flood-opacity="0" result="BackgroundImageFix"/>
<feColorMatrix in="SourceAlpha" type="matrix" values="0 0 0 0 0 0 0 0 0 0 0 0 0 0 0 0 0 0 127 0" result="hardAlpha"/>
<feOffset dx="6"/>
<feGaussianBlur stdDeviation="7.5"/>
<feComposite in2="hardAlpha" operator="out"/>
<feColorMatrix type="matrix" values="0 0 0 0 0.341667 0 0 0 0 0.341667 0 0 0 0 0.341667 0 0 0 0.25 0"/>
<feBlend mode="normal" in2="BackgroundImageFix" result="effect1_dropShadow_0_1"/>
<feBlend mode="normal" in="SourceGraphic" in2="effect1_dropShadow_0_1" result="shape"/>
</filter>
<linearGradient id="paint0_linear_0_1" x1="556.455" y1="20.0001" x2="-88.2892" y2="20.0001" gradientUnits="userSpaceOnUse">
<stop stop-color="#1A9C9A"/>
<stop offset="1" stop-color="#1A9C9A" stop-opacity="0"/>
</linearGradient>
<clipPath id="clip0_0_1">
<rect width="1440" height="1080" fill="white" transform="translate(-36 -198)"/>
</clipPath>
</defs>
</svg>
