<svg width="16" height="16" viewBox="0 0 16 16" fill="none" xmlns="http://www.w3.org/2000/svg">
<g id="calendar_month_FILL0_wght400_GRAD0_opsz24 2">
<path id="Vector" d="M3.35384 14.4746C3.00194 14.4746 2.7007 14.3493 2.45011 14.0987C2.19951 13.8481 2.07422 13.5468 2.07422 13.1949V4.23759C2.07422 3.88569 2.19951 3.58445 2.45011 3.33385C2.7007 3.08326 3.00194 2.95797 3.35384 2.95797H3.99365V1.67834H5.27327V2.95797H10.3918V1.67834H11.6714V2.95797H12.3112C12.6631 2.95797 12.9643 3.08326 13.2149 3.33385C13.4655 3.58445 13.5908 3.88569 13.5908 4.23759V13.1949C13.5908 13.5468 13.4655 13.8481 13.2149 14.0987C12.9643 14.3493 12.6631 14.4746 12.3112 14.4746H3.35384ZM3.35384 13.1949H12.3112V6.79683H3.35384V13.1949ZM3.35384 5.51721H12.3112V4.23759H3.35384V5.51721ZM7.83251 9.35607C7.65123 9.35607 7.49928 9.29476 7.37665 9.17212C7.25402 9.04949 7.1927 8.89754 7.1927 8.71626C7.1927 8.53498 7.25402 8.38303 7.37665 8.2604C7.49928 8.13776 7.65123 8.07645 7.83251 8.07645C8.01379 8.07645 8.16575 8.13776 8.28838 8.2604C8.41101 8.38303 8.47232 8.53498 8.47232 8.71626C8.47232 8.89754 8.41101 9.04949 8.28838 9.17212C8.16575 9.29476 8.01379 9.35607 7.83251 9.35607ZM5.27327 9.35607C5.09199 9.35607 4.94004 9.29476 4.81741 9.17212C4.69478 9.04949 4.63346 8.89754 4.63346 8.71626C4.63346 8.53498 4.69478 8.38303 4.81741 8.2604C4.94004 8.13776 5.09199 8.07645 5.27327 8.07645C5.45455 8.07645 5.60651 8.13776 5.72914 8.2604C5.85177 8.38303 5.91308 8.53498 5.91308 8.71626C5.91308 8.89754 5.85177 9.04949 5.72914 9.17212C5.60651 9.29476 5.45455 9.35607 5.27327 9.35607ZM10.3918 9.35607C10.2105 9.35607 10.0585 9.29476 9.93589 9.17212C9.81326 9.04949 9.75194 8.89754 9.75194 8.71626C9.75194 8.53498 9.81326 8.38303 9.93589 8.2604C10.0585 8.13776 10.2105 8.07645 10.3918 8.07645C10.573 8.07645 10.725 8.13776 10.8476 8.2604C10.9703 8.38303 11.0316 8.53498 11.0316 8.71626C11.0316 8.89754 10.9703 9.04949 10.8476 9.17212C10.725 9.29476 10.573 9.35607 10.3918 9.35607ZM7.83251 11.9153C7.65123 11.9153 7.49928 11.854 7.37665 11.7314C7.25402 11.6087 7.1927 11.4568 7.1927 11.2755C7.1927 11.0942 7.25402 10.9423 7.37665 10.8196C7.49928 10.697 7.65123 10.6357 7.83251 10.6357C8.01379 10.6357 8.16575 10.697 8.28838 10.8196C8.41101 10.9423 8.47232 11.0942 8.47232 11.2755C8.47232 11.4568 8.41101 11.6087 8.28838 11.7314C8.16575 11.854 8.01379 11.9153 7.83251 11.9153ZM5.27327 11.9153C5.09199 11.9153 4.94004 11.854 4.81741 11.7314C4.69478 11.6087 4.63346 11.4568 4.63346 11.2755C4.63346 11.0942 4.69478 10.9423 4.81741 10.8196C4.94004 10.697 5.09199 10.6357 5.27327 10.6357C5.45455 10.6357 5.60651 10.697 5.72914 10.8196C5.85177 10.9423 5.91308 11.0942 5.91308 11.2755C5.91308 11.4568 5.85177 11.6087 5.72914 11.7314C5.60651 11.854 5.45455 11.9153 5.27327 11.9153ZM10.3918 11.9153C10.2105 11.9153 10.0585 11.854 9.93589 11.7314C9.81326 11.6087 9.75194 11.4568 9.75194 11.2755C9.75194 11.0942 9.81326 10.9423 9.93589 10.8196C10.0585 10.697 10.2105 10.6357 10.3918 10.6357C10.573 10.6357 10.725 10.697 10.8476 10.8196C10.9703 10.9423 11.0316 11.0942 11.0316 11.2755C11.0316 11.4568 10.9703 11.6087 10.8476 11.7314C10.725 11.854 10.573 11.9153 10.3918 11.9153Z" fill="#1A9C9A"/>
</g>
</svg>
