<svg width="36" height="36" viewBox="0 0 36 36" fill="none" xmlns="http://www.w3.org/2000/svg">
<g id="Group 19405">
<g id="chat_info">
<mask id="mask0_678_5012" style="mask-type:alpha" maskUnits="userSpaceOnUse" x="0" y="0" width="36" height="36">
<rect id="Bounding box" width="35.6374" height="35.6374" fill="#D9D9D9"/>
</mask>
<g mask="url(#mask0_678_5012)">
<path id="chat_info_2" d="M17.8177 10.3942C18.2384 10.3942 18.5911 10.2519 18.8757 9.96729C19.1603 9.68268 19.3026 9.33002 19.3026 8.9093C19.3026 8.48858 19.1603 8.13592 18.8757 7.85131C18.5911 7.56671 18.2384 7.42441 17.8177 7.42441C17.397 7.42441 17.0443 7.56671 16.7597 7.85131C16.4751 8.13592 16.3328 8.48858 16.3328 8.9093C16.3328 9.33002 16.4751 9.68268 16.7597 9.96729C17.0443 10.2519 17.397 10.3942 17.8177 10.3942ZM16.3328 22.2733H19.3026V13.364H16.3328V22.2733ZM2.96875 32.6676V5.93951C2.96875 5.12282 3.25954 4.42368 3.84112 3.8421C4.42271 3.26052 5.12185 2.96973 5.93854 2.96973H29.6968C30.5135 2.96973 31.2127 3.26052 31.7942 3.8421C32.3758 4.42368 32.6666 5.12282 32.6666 5.93951V23.7582C32.6666 24.5749 32.3758 25.2741 31.7942 25.8556C31.2127 26.4372 30.5135 26.728 29.6968 26.728H8.90832L2.96875 32.6676ZM7.64616 23.7582H29.6968V5.93951H5.93854V25.4287L7.64616 23.7582Z" fill="#717171"/>
</g>
</g>
</g>
</svg>
