<svg width="34" height="34" viewBox="0 0 34 34" fill="none" xmlns="http://www.w3.org/2000/svg">
<g id="insurance-card 1">
<g id="Group">
<g id="Group_2">
<path id="Vector" d="M4.102 6.13892H29.8971C29.8971 6.13892 32.6124 6.13892 32.6124 8.85419V25.1459C32.6124 25.1459 32.6124 27.8611 29.8971 27.8611H4.102C4.102 27.8611 1.38672 27.8611 1.38672 25.1459V8.85419C1.38672 8.85419 1.38672 6.13892 4.102 6.13892Z" stroke="#717171" stroke-width="2.5" stroke-linecap="round" stroke-linejoin="round"/>
<path id="Vector_2" d="M1.38672 10.2119H32.6124" stroke="#717171" stroke-width="2.5" stroke-linecap="round" stroke-linejoin="round"/>
</g>
<path id="Vector_3" d="M21.1597 17.3394C21.1597 17.2948 21.1509 17.2506 21.1339 17.2095C21.1168 17.1683 21.0918 17.1309 21.0603 17.0994C21.0288 17.0678 20.9914 17.0428 20.9502 17.0258C20.909 17.0087 20.8649 16.9999 20.8203 16.9999H18.4444V14.6241C18.4444 14.5341 18.4087 14.4477 18.345 14.3841C18.2814 14.3204 18.1951 14.2847 18.105 14.2847H14.7109C14.6209 14.2847 14.5346 14.3204 14.4709 14.3841C14.4073 14.4477 14.3715 14.5341 14.3715 14.6241V16.9999H11.9957C11.9056 16.9999 11.8193 17.0357 11.7557 17.0994C11.692 17.163 11.6562 17.2493 11.6562 17.3394V20.7335C11.6562 20.8235 11.692 20.9098 11.7557 20.9735C11.8193 21.0371 11.9056 21.0729 11.9957 21.0729H14.3715V23.4487C14.3715 23.5387 14.4073 23.6251 14.4709 23.6887C14.5346 23.7524 14.6209 23.7881 14.7109 23.7881H18.105C18.1951 23.7881 18.2814 23.7524 18.345 23.6887C18.4087 23.6251 18.4444 23.5387 18.4444 23.4487V21.0729H20.8203C20.8649 21.0729 20.909 21.0641 20.9502 21.047C20.9914 21.03 21.0288 21.005 21.0603 20.9735C21.0918 20.9419 21.1168 20.9045 21.1339 20.8633C21.1509 20.8222 21.1597 20.778 21.1597 20.7335V17.3394Z" stroke="#717171" stroke-width="2.5" stroke-linecap="round" stroke-linejoin="round"/>
</g>
</g>
</svg>
