<svg width="36" height="36" viewBox="0 0 36 36" fill="none" xmlns="http://www.w3.org/2000/svg">
<g id="lab test">
<path id="Vector" d="M19.4356 2.43354L20.8434 3.84135L2.26832 22.4165C0.805444 23.8793 0 25.8241 0 27.8928C0 29.9615 0.805444 31.9062 2.26832 33.3708C3.73292 34.832 5.67769 35.6374 7.74465 35.6374C9.81161 35.6374 11.7564 34.832 13.221 33.3691L31.7961 14.794L33.2039 16.2018L35.6374 13.7683L21.8692 0L19.4356 2.43354ZM24.912 16.8111L20.7763 12.6737L18.3428 15.1072L22.4784 19.2446L20.0449 21.6799L18.341 19.976L15.9075 22.4096L17.6113 24.1134L15.1761 26.5487L11.0404 22.4113L8.60517 24.8431L12.7408 28.9805L10.7857 30.9356C9.15934 32.5602 6.32824 32.5602 4.70186 30.9356C3.88953 30.1215 3.44207 29.0424 3.44207 27.8928C3.44207 26.7431 3.88953 25.664 4.70186 24.85L23.277 6.27489L29.3608 12.3587L24.912 16.8111Z" fill="#717171"/>
</g>
</svg>
