<svg width="36" height="36" viewBox="0 0 36 36" fill="none" xmlns="http://www.w3.org/2000/svg">
<g id="Group 19405">
<g id="notifications">
<mask id="mask0_678_4958" style="mask-type:alpha" maskUnits="userSpaceOnUse" x="0" y="0" width="36" height="36">
<rect id="Bounding box" width="35.6374" height="35.6374" fill="#D9D9D9"/>
</mask>
<g mask="url(#mask0_678_4958)">
<path id="notifications_2" d="M5.94141 28.2129V25.2431H8.91119V14.8489C8.91119 12.7948 9.5299 10.9696 10.7673 9.37333C12.0047 7.77707 13.6134 6.73146 15.5932 6.23649V5.19707C15.5932 4.57836 15.8098 4.05246 16.2429 3.61937C16.6759 3.18627 17.2018 2.96973 17.8206 2.96973C18.4393 2.96973 18.9652 3.18627 19.3982 3.61937C19.8313 4.05246 20.0479 4.57836 20.0479 5.19707V6.23649C22.0277 6.73146 23.6364 7.77707 24.8738 9.37333C26.1112 10.9696 26.7299 12.7948 26.7299 14.8489V25.2431H29.6997V28.2129H5.94141ZM17.8206 32.6676C17.0039 32.6676 16.3047 32.3768 15.7231 31.7952C15.1416 31.2136 14.8508 30.5145 14.8508 29.6978H20.7903C20.7903 30.5145 20.4995 31.2136 19.918 31.7952C19.3364 32.3768 18.6372 32.6676 17.8206 32.6676ZM11.881 25.2431H23.7601V14.8489C23.7601 13.2155 23.1785 11.8172 22.0154 10.654C20.8522 9.49088 19.4539 8.9093 17.8206 8.9093C16.1872 8.9093 14.7889 9.49088 13.6257 10.654C12.4626 11.8172 11.881 13.2155 11.881 14.8489V25.2431Z" fill="#717171"/>
</g>
</g>
</g>
</svg>
