<svg width="35" height="34" viewBox="0 0 35 34" fill="none" xmlns="http://www.w3.org/2000/svg">
<path d="M17.851 21.7167C19.5017 20.3827 20.7482 19.0988 21.5902 17.8649C22.4323 16.631 22.8533 15.4721 22.8533 14.3882C22.8533 13.4545 22.6824 12.6583 22.3406 11.9996C21.9988 11.341 21.5777 10.8074 21.0775 10.3989C20.5773 9.99033 20.0353 9.69436 19.4517 9.51094C18.8681 9.32752 18.3345 9.23581 17.851 9.23581C17.3674 9.23581 16.8338 9.32752 16.2502 9.51094C15.6666 9.69436 15.1247 9.99033 14.6244 10.3989C14.1242 10.8074 13.7032 11.341 13.3613 11.9996C13.0195 12.6583 12.8486 13.4545 12.8486 14.3882C12.8486 15.4721 13.2696 16.631 14.1117 17.8649C14.9538 19.0988 16.2002 20.3827 17.851 21.7167ZM17.851 24.2429C15.4999 22.5087 13.7449 20.8246 12.586 19.1905C11.4271 17.5564 10.8477 15.9557 10.8477 14.3882C10.8477 13.2044 11.0603 12.1664 11.4855 11.2743C11.9107 10.3822 12.4568 9.636 13.1237 9.03571C13.7907 8.43543 14.5411 7.98522 15.3748 7.68508C16.2085 7.38493 17.0339 7.23486 17.851 7.23486C18.668 7.23486 19.4934 7.38493 20.3271 7.68508C21.1609 7.98522 21.9112 8.43543 22.5782 9.03571C23.2452 9.636 23.7913 10.3822 24.2165 11.2743C24.6417 12.1664 24.8543 13.2044 24.8543 14.3882C24.8543 15.9557 24.2748 17.5564 23.116 19.1905C21.9571 20.8246 20.2021 22.5087 17.851 24.2429ZM17.851 16.2391C18.4012 16.2391 18.8723 16.0432 19.2641 15.6513C19.656 15.2595 19.8519 14.7884 19.8519 14.2382C19.8519 13.6879 19.656 13.2169 19.2641 12.825C18.8723 12.4332 18.4012 12.2372 17.851 12.2372C17.3007 12.2372 16.8296 12.4332 16.4378 12.825C16.0459 13.2169 15.85 13.6879 15.85 14.2382C15.85 14.7884 16.0459 15.2595 16.4378 15.6513C16.8296 16.0432 17.3007 16.2391 17.851 16.2391ZM10.8477 27.2443V25.2434H24.8543V27.2443H10.8477Z" fill="black"/>
</svg>
