<svg width="36" height="36" viewBox="0 0 36 36" fill="none" xmlns="http://www.w3.org/2000/svg">
<g id="Group 19405">
<g id="account_box">
<mask id="mask0_678_4985" style="mask-type:alpha" maskUnits="userSpaceOnUse" x="0" y="0" width="36" height="36">
<rect id="Bounding box" width="35.6374" height="35.6374" fill="#D9D9D9"/>
</mask>
<g mask="url(#mask0_678_4985)">
<path id="account_box_2" d="M7.42291 26.5053C8.75932 25.1936 10.3123 24.1604 12.0818 23.4055C13.8513 22.6507 15.7631 22.2733 17.8172 22.2733C19.8713 22.2733 21.7831 22.6507 23.5526 23.4055C25.3221 24.1604 26.875 25.1936 28.2114 26.5053V7.42438H7.42291V26.5053ZM17.8172 19.3035C19.2526 19.3035 20.4776 18.7962 21.4923 17.7815C22.507 16.7668 23.0143 15.5418 23.0143 14.1064C23.0143 12.671 22.507 11.446 21.4923 10.4313C20.4776 9.41661 19.2526 8.90927 17.8172 8.90927C16.3818 8.90927 15.1567 9.41661 14.1421 10.4313C13.1274 11.446 12.62 12.671 12.62 14.1064C12.62 15.5418 13.1274 16.7668 14.1421 17.7815C15.1567 18.7962 16.3818 19.3035 17.8172 19.3035ZM7.42291 31.1827C6.60622 31.1827 5.90708 30.8919 5.3255 30.3103C4.74392 29.7287 4.45312 29.0296 4.45312 28.2129V7.42438C4.45312 6.60769 4.74392 5.90855 5.3255 5.32696C5.90708 4.74538 6.60622 4.45459 7.42291 4.45459H28.2114C29.0281 4.45459 29.7272 4.74538 30.3088 5.32696C30.8904 5.90855 31.1812 6.60769 31.1812 7.42438V28.2129C31.1812 29.0296 30.8904 29.7287 30.3088 30.3103C29.7272 30.8919 29.0281 31.1827 28.2114 31.1827H7.42291ZM10.3927 28.2129H25.2416V27.8417C24.2022 26.9755 23.0514 26.3258 21.7893 25.8927C20.5271 25.4596 19.2031 25.2431 17.8172 25.2431C16.4313 25.2431 15.1072 25.4596 13.8451 25.8927C12.5829 26.3258 11.4321 26.9755 10.3927 27.8417V28.2129ZM17.8172 16.3337C17.1985 16.3337 16.6726 16.1172 16.2395 15.6841C15.8064 15.251 15.5898 14.7251 15.5898 14.1064C15.5898 13.4877 15.8064 12.9618 16.2395 12.5287C16.6726 12.0956 17.1985 11.8791 17.8172 11.8791C18.4359 11.8791 18.9618 12.0956 19.3949 12.5287C19.828 12.9618 20.0445 13.4877 20.0445 14.1064C20.0445 14.7251 19.828 15.251 19.3949 15.6841C18.9618 16.1172 18.4359 16.3337 17.8172 16.3337Z" fill="#717171"/>
</g>
</g>
</g>
</svg>
