<svg width="38" height="34" viewBox="0 0 38 34" fill="none" xmlns="http://www.w3.org/2000/svg">
<path d="M23.677 21.3701L24.937 20.1101L21.607 16.7801V12.6401H19.807V17.5001L23.677 21.3701ZM20.707 26.1401C19.462 26.1401 18.292 25.9039 17.197 25.4314C16.102 24.9589 15.1495 24.3176 14.3395 23.5076C13.5295 22.6976 12.8883 21.7451 12.4158 20.6501C11.9433 19.5551 11.707 18.3851 11.707 17.1401C11.707 15.8951 11.9433 14.7251 12.4158 13.6301C12.8883 12.5351 13.5295 11.5826 14.3395 10.7726C15.1495 9.96264 16.102 9.32139 17.197 8.84889C18.292 8.37639 19.462 8.14014 20.707 8.14014C21.952 8.14014 23.122 8.37639 24.217 8.84889C25.312 9.32139 26.2645 9.96264 27.0745 10.7726C27.8845 11.5826 28.5258 12.5351 28.9983 13.6301C29.4708 14.7251 29.707 15.8951 29.707 17.1401C29.707 18.3851 29.4708 19.5551 28.9983 20.6501C28.5258 21.7451 27.8845 22.6976 27.0745 23.5076C26.2645 24.3176 25.312 24.9589 24.217 25.4314C23.122 25.9039 21.952 26.1401 20.707 26.1401ZM20.707 24.3401C22.702 24.3401 24.4008 23.6389 25.8033 22.2364C27.2058 20.8339 27.907 19.1351 27.907 17.1401C27.907 15.1451 27.2058 13.4464 25.8033 12.0439C24.4008 10.6414 22.702 9.94014 20.707 9.94014C18.712 9.94014 17.0133 10.6414 15.6108 12.0439C14.2083 13.4464 13.507 15.1451 13.507 17.1401C13.507 19.1351 14.2083 20.8339 15.6108 22.2364C17.0133 23.6389 18.712 24.3401 20.707 24.3401Z" fill="black"/>
</svg>
